<svg xmlns="http://www.w3.org/2000/svg" viewBox="0 0 100 100"><defs/><path d="M51 5L41 8l-12 4c-5 2-6 3-8 8-3 6-3 6-1 8v3c-3 1-7 6-8 10-1 5-1 5 2 0 2-5 7-10 10-9h2l3-1 5-2 2-2c1 1 3 0 4-1l6-1 4-1-4 2-3 2h12c4 0 5 1 1 3-2 1-2 1 2 3s6 4 4 4v2l2 6c0 5 1 6 2 5 1 0 2 5 2 11-1 7-3 10-10 14-4 2-4 2-3 0l1-6c0-6-1-7-7-7-4 0-5 0-4 1l4 1c2 0 3 1 4 3 0 3 0 10-2 11-1 2-10 4-12 3-3-1-7-14-6-15 2-2 1-3-1-2l-3-1c-2-3 0 3 3 8 2 5 2 6-2 5-2 0-3 0-4 2-1 1-1 1 0 0 3-2 3 0 0 6l-4 6-2 1c-1 1-1 1-1-1l2-4c0-2 0-2-3 2l-3 3-1-1c-2 0-2-1-1-3l2-3-3 2c-2 1-3 3-2 3l-2 2H7l-1-2c-3-1-3-1-3 2l1 6v2h46l47-1V83l-3 4c-2 3-3 4-3 2v-1l-2 3-2 1c-2 1 2-5 5-7l4-5c1-3 1-3-1-6l-5-2c-1 1-3 0-5-3-4-4-4-4-3-6 2-2 3-3 1-3-2 1-4 0-4-2 0-4 3-9 5-10 2 0 4-5 3-8v-2l2-2c1-2 1-2-2-1-3 0-4-1-4-6l-2-7-2-6-1-1 1-4V8c-7 3-9 3-14 1l-8-2c-2 1-2 0-1-1 0-3-1-3-5-1m25 75c-3 6-4 12-2 12l2-2 3-6c2-2 2-2 0 2l-1 6h2l1-2 1 2c-1 1-1 1 0 0l7-6v-2h-2c0-2-4-5-5-4l-2-2-2-2-2 4" fill="#4e4936" fill-rule="evenodd"/></svg>