<svg xmlns="http://www.w3.org/2000/svg" viewBox="0 0 100 100"><defs/><path d="M66 12c5 3 10 9 11 13l1 2-4-5c-3-3-3-3 0 2 4 5 7 12 6 14-1 1-1 0-1-1l-1-2-3-2h2c0 2 1 2 1 1 0-2-5-9-8-11l2 4 2 4-1 1 3 6c3 6 4 9 2 15 0 4-5 9-8 9l-5 4c-3 5-14 13-19 14-2 0-3 0-8-5-4-4-6-6-7-5l-2 1c-1-1-1-1 0 0l-2 1h-2l2 1c2 0 2 1 2 3l2-1c2-4 3-4 2 2v5l1 1c0 3-4 1-4-2 0-2 0-2-1-1 0 2 2 5 4 6s2 1 0 1c-3 0-9 5-9 7l-2 4-1 2h77v-5c0-5 0-5-3-6l-9-3-6-1 4-3c2-3 3-4 3-7v-3l-1 3c-1 3-1 3-2 2 0-2-2-4-7-8l2-7c4-8 5-14 4-22-2-13-8-24-15-28h-2m-32 3v1l-2 2c-3 4-4 3-1 0l2-2-3 1c-3 3-7 12-7 15v2c-3-1 1 16 4 24l4 7-1-6c0-7 0-7 2-7l3 1c1 1 0 1 0 0-2 0-4 3-2 4 1 1 5 0 5-2s-5-6-6-6l-3 2-3 3v-3-7h1l2 1c2 0 2 0 1 1-2 1-2 1 1 1l2-1 1-1 2 1h6l8-2 6-1h-4l-2-1c0-1 1-2 3-2 4 0 7-4 4-9-2-3 0-2 3 2l3 4 1 6a1743 1743 0 015 8c3-6 6-7 8-4 3 4 2 2-1-7-4-7-10-16-11-15l3 5c2 2 3 5 2 5l1 3-3-2-4-4 4 5c4 4 5 7 4 7-1 1-8-3-8-5 0-1 2 0 3 2l4 3c1-1-23-26-26-27-5-2-5-1 0 2s8 9 9 16c1 5-1 6-2 1-1-4-4-8-4-5l-1 1-1-1-1-3-2-2 2 4 2 4 1 3-1 3-1 2-1 2c-2 0-2 0-3-12l-2-5c-1-2-2 4-1 8 1 3 0 11-1 11l-1-3c-1-2-1-2-2-1l-1-3c-2-10-2-11-3-10v7l1 7c-1 2-3-4-3-9l-1-4-1 6v5c-2 0-1-11 1-15 0-2 3-5 5-7 2-1 3-3 2-3v-1l1-2-2 2" fill="#4e4936" fill-rule="evenodd"/></svg>