<svg xmlns="http://www.w3.org/2000/svg" viewBox="0 0 100 100"><defs/><path d="M63 11c4 1 5 3 6 7 1 2 1 2-1 1l-1-1c3 7 3 9 2 15l-1 6-1-6c-1-7-4-13-8-15l-2-2 2 3c4 4 5 6 6 12l1 6-1 4c-1 2-2 2-2-4l-1-5v6c0 8-3 15-6 15v-1l2-4v-2l-2 3c-2 3-2 6-1 6l5-3 3-3v-2l4-6c3-3 4-5 4-7s0-3 1-2l1 2 1 2v-5l-2-5 2 2c0 3 1 5 2 5 1 1-1-7-3-10-2-4-1-5 2-1 3 6 2 16-3 22l-2 2c2-5 2-6 0-3l-4 5c-1 2-1 2 2 2h3l-3 1-3 1v2h1l2-1 2 2a68 68 0 001 7l1 1v-2l1-4c2-2 2-2 3 0s1 2 1-2 0-4 1-3c2 1 2 1 1-3 0-3 0-3 2-3 2 1 2 1 1-2-2-3-4-10-2-8 2 3 1 0-1-8-2-3-4-8-6-9a473 473 0 01-10-8M31 26l-2 4-1 1v-1h-1c-2 1-2 2-1 2 2 2 1 5-3 10l-5 5-3 2h2c3-1 3-1 3 1h1c0-3 5-10 6-10s1 1-1 4-2 3 2 2l3-1 3-1c1-1 2-1 2 1h-1l-1 1c1 1-5 6-6 5l2-3 2-2-3 1-2 4c0 2-2 2-3-1l-1-2-1 2-2 2-1 1v1c-1 1 0 1 1 1l3-1c0-2 2 1 2 2l-1 1v1h1c1-1 1-1 2 1l2 2 1 2-2 8h-1c-2 1-2 1 0-2v-4c-1 1-1 0-1-2s0-3-1-1c0 1-1 2-4 2l-10 3c-5 2-6 4-5 10 0 2 0 3-2 4L3 91v9h39l38-1-7-6-2-4c-1-2-2-4-4-4l-5-5-2-3 3-3c1-2 0-1-3 2l-7 5c-4 0-16-10-20-17l-4-6c-4-3-3-6 0-6 2 0 3 2 1 2v2l3-1v-1c-3 1-2-3 1-4l3-3 3-4c3-3 3-3 2-1l1 2 1-2c0-2 3-5 4-4l-1 3v2l1-1 2-3c3-3 3-5 0-2-2 1-2 1-2-1 1-3 0-3-2 1-3 3-3 2-2-2l1-4-4 8-3 2c-3 1-3 1-2-1h-1l-1-2c3-5 2-5-1 0l-5 6-2 1 2-2c2-3 3-7 2-7-1-1 0-6 2-10 3-4 2-4-1 0" fill="#4e4936" fill-rule="evenodd"/></svg>