<svg xmlns="http://www.w3.org/2000/svg" viewBox="0 0 100 100"><defs/><path d="M43 6l-2 4c0 3-1 3-3 3l-4-3c-1-2-2-1-1 2s1 3-2 3c-3 1-8 6-7 7l-2 5-2 7c1 0 1 1 0 0l-1 24c0 9 1 13 2 13v-2l1 1a1271 1271 0 004 5c0-2 0-2 3 1 3 4 3 6-3 11-2 2-4 4-4 8l-2 5h78v-8c0-9-1-10-7-12-3 0-6-3-6-6l-4-4c-2-1-2-1 0-4l2-6c1-2 1-2 2 1 1 4 2 3 2-3V48c0-3 0-5-2-8-2-2-3-5-3-8s-1-4-7-11c-5-5-7-7-12-9-6-2-12-3-17-1-4 1-4 0 0-4l3-3h-3l-3 2m8 37c-1 1-1 1 1 1s2 0 1 1l-3 1-4 2-2 5v1l-3 2c-1 1-2 2-6 2l-5-1 1-1 1-1c1-1 0-1-1-1-2 1-2 6 1 10l1 4c0 1 9 10 11 10 3 0 11-5 15-8 3-3 4-6 2-5-2 0-2-1-2-8s0-8-2-11l-3-4c0-1-2-1-3 1" fill="#4e4936" fill-rule="evenodd"/></svg>