<svg xmlns="http://www.w3.org/2000/svg" viewBox="0 0 300 300"><defs/><path d="M117 25l-13 10-10 10a81 81 0 00-23 32c-19 36-24 51-24 67l1 14c1 9 8 20 15 24l5 4 2 2v-4l3 3 7 12c4 4 7 9 8 12 3 5 3 12 1 15v1c5-2 3 8-3 14l-5 5c-2 1-2 1 3 1l9-3 4-2-2 3c0 2-2 3-2 3l-8 8c-9 9-16 14-27 18-13 5-14 5-17 1l-2-4-8 4-23 13h2l2-1-1 4c-2 2-4 8-3 8l285 1v-5c0-4-1-4-6-8l-18-10-12-6-2 4c-2 3-3 3-6 2-6-1-20-7-26-11-5-3-12-10-15-15l-5-3-4-3 4 1c5 2 8 2 11 0l2-1-3-2c-5-2-9-10-10-18 0-5 0-5 3-9 4-4 5-8 6-14l6-12 5-8 4 1c4 0 6 0 9-2 7-4 9-10 9-25l-1-14c-1-5-1-6 2-11 2-4 2-6 2-13-1-11-6-21-20-38l-11-14a95 95 0 00-35-33c-5-3-15-6-26-7l-13-3-11-1c-8 0-9 0-15 3m110 66l12 36 3 6 1-4c0-5-1-14-5-20-2-6-11-19-11-18m-108 35l-3 10 12 3c11 4 14 6 14 9l-5 1-6-1 2 3c3 3 2 4-2 1-3-3-3-3-4-1l-3 4c-2 1-2 2-1 2v1c-6 3-15 0-19-6l-2-3v11a91 91 0 009 36l-11-16-3-6c-1 0 9 28 12 33 5 9 19 23 34 32 6 4 10 4 19-3 9-6 25-21 29-28l9-22-5 4-5 4 3-7c4-8 6-17 6-27v-8l-3 2c-3 3-10 6-11 5l3-2c7-2 9-7 5-9-2-1-2-1-2 2-2 5-5 7-9 7l-5-1c-1-1-2 0-3 2-1 4-3 4-2-1 0-4-1-5-3-3s-1 0 1-3l1-2c-3 0-5 2-6 6-2 6-3 6-4 1v-4l-4 3-2 1-3-3c-8-4-15-13-23-28l-6-9-4 10m-59 7l-4 13c-2 11 0 25 5 30h2a86 86 0 010-49l-3 6" fill="#4e4936" fill-rule="evenodd"/></svg>