<svg xmlns="http://www.w3.org/2000/svg" viewBox="0 0 200 200"><defs/><path d="M84 21l-10 4c-5 3-15 14-20 21-4 6-9 18-11 32-2 9-5 16-9 26-6 16-8 23-6 28 2 6 3 5 2-2 0-5 0-6 3-12l3-5-1 9c0 5 0 8 2 13 3 9 2 15-3 25l-3 10v4l3-5 3-4-1 3-2 3c1 1 0 4-2 7l-4 5c-2-1-3 0-6 3l-10 8-6 5c-1 1 32 1 91 1h92l-3-2-5-4-2-2 3 1 3-1-2-1-10-7c-10-7-14-12-15-18l-1-3 4 3c4 3 8 5 8 3l-1-1-3-3v-3c2 1 2 0 0-2-5-4-7-17-5-34l1-9 1 5c2 6 3 15 2 19-2 3 1 2 3-2 4-6 3-17-4-35-5-12-10-29-13-40-7-30-22-42-52-44-7-1-10-1-14 1m-1 61l-2 5 5 1 4 3h-2c-7-3-7-3-9-1-1 2-1 3 4 4 5 2 6 3 6 6 1 3 0 4-2 2s-5-3-6-1l2 1c3 0 3 1-1 5-2 2-3 3-7 2l-6-2c-2-1-2-1-2 1l-2 6-2 4 4 9c5 10 14 20 23 26s13 5 26-5c8-7 12-12 16-21 3-5 3-8 3-13 0-9 0-9-4-7-6 3-10 3-13 0l-3-5h-2c-2 2-3 1-2-1v-2c-2 0 0-2 4-4s4-2 2-3c-2-2-2-2-5-1-2 1-3 2-4 7l-1 7c0 2-1 1-3-1-1-1-1-1-1 2l1 4c-2 0-18-26-18-30 0-3-2-2-3 2" fill="#4e4936" fill-rule="evenodd"/></svg>