<svg xmlns="http://www.w3.org/2000/svg" viewBox="0 0 100 100"><defs/><path d="M41 6l-4 1c-3-1-4 0-6 2l-3 3-4 4c-2 3-2 6-3 14l-1 9 4 8 4 6-2-5c-2-5-2-7 2-7l2-1c-1-3 0-2 5 1 6 3 5 3 13-3 5-5 6-5 5-2 0 2 0 2 5 1 4-1 4-1 6 1l2 4c1 1 1 2 2 1 2 0 2 0 1 1 0 2 0 2 3 1 2-2 3-2 4 0v4 7h-2-1l-2-1 1-2v-1c-2-2-1-3 1-2l1-2v-1l2-1c0-2-4-1-5 1l-1 6c0 4 0 4 2 4l2 1-3 2c-2 0-3 1-3 3-1 3-8 10-14 14-7 4-10 4-15-2l-6-7-2-1 8 10c7 8 8 10 8 13s0 3-1 2c0-2-1-2-1-1l-1-1v-2l1-1c0-2-2-2-5 1a142 142 0 01-18 12h75v-6c1-1 0-1-2-2-15-3-24-7-25-11v-6c-1-4-1-5 1-9 8-13 9-17 10-27l2-9-3-6c-3-6-9-13-10-13l2 6c3 5 4 11 3 11l-1-2h-1l-1 4-1 3 2-1 2-2-1 3-1 3v3l-1-1-2-1-1 1c2 2-2 2-4 0-1-2-1-2 1-3v-2l-6 1c-5 2-6 2-4-1 1-2 1-2-3 0l-7 4c-1 2-2 2-2 1h-1v2h-4c1 2 0 2-3 0l-10-4 1 2c2 0 1 2-1 2-4-1-4-3-4-11 1-7 1-9 3-13l3-4c0 1 2 0 3-2 2-2 4-3 6-2 2 0 3 1 2 2s-2 10-1 11h2v-2c-1-1-1-1 2-1h3l-3-2-2-2 2 1c2 0 2 0 1-1-3-2-2-3 0-3h1l-2-2h-1l2-2c2 0 3 1 3 2l1 2V7c1-1 1-1-3-2l-3 1" fill="#4e4936" fill-rule="evenodd"/></svg>