<svg xmlns="http://www.w3.org/2000/svg" viewBox="0 0 100 100"><defs/><path d="M60 8c4 0 4 2 0 2l-7 6c-5 4-5 4-5 2l2-5c1-1 1-1-1-3l-2-1 1 1c2 1 3 3 1 3l-1 1c0 2-1 2-2 1-4-1-5 1-2 3 2 1 3 4 1 4l-3-2c-1-2-2-2-2-1h-2l1 2 2 6c0 2 0 2-2-1-4-5-6-5-9 2-3 5-4 8-2 16v9c-3 6-9 9-11 5v2c1 3 3 3 7 0l4-3v5c0 3 0 4-1 3v-3h-1c-2 1 0 8 2 8l3 3c0 2 1 3 2 3v-3c-2-3-2-4-1-4l2 3c1 2 2 5 4 6l2 6v8h-1l-2-3c-1-4-1-4 1-6 1-2 1-2-1-1l-4 2h-2l-2 2-2 1c1-2 1-2-1-2s-3 2-4 4c-2 3-3 4-3 2l-2-2v-1l-1-1v2l-1 4v-1c0-2 0-2-1 0l-4 5-3 3h90v-4-10l-3-24c-1-2 0-3 2-4 2-2 2-5 0-4l-3-2-1-2v-1l-2-3-1-2-2-4c0-4-5-20-7-24-1-2-2-2-4-2-3 1-5-1-2-1l-2-1h-4l5 5 3 4-1-1-2-1 2 3c4 3 5 6 1 3l1 1 3 5c0 4 3 11 6 15l2 3-3-2c-2-4-3-4-2 0l-1 4-1-2-1-3-3-6c-2-4-12-17-12-15l4 6 7 10c0 3 2 8 4 10 3 6 3 7 0 4h-3l-1 2-2 3c-1 1-1 1-3-1l-3-4v1l2 5c3 5-3 1-7-5-3-4-4-6-4-14 0-9-2-15-6-18l1 2c6 8 5 27-2 34l-2 3c2 0 4-1 6-5l1-2v2c-1 3-1 3 1 2l1-4c0-1 1-1 2 1 2 3 4 5 8 7l1 1c-2 0-3 1-1 3h-1c-4-2-8-7-7-7l-1-1-4 4-5 4-2 1h5l2 1h3c2 2-9 8-16 9h-5l-3-8-4-8v-6-6l1-2 1 3c-1 3 0 3 1 2 3-2 2-3-1-8-4-4-4-4-3-9s5-7 11-7l2-1c0-3 0-4 5-8 4-3 6-3 10-3h7c1 1 1 1 0 0l-6-2-4-1 2-1c2-2 5-2 7-2l3-1c0-2-5-4-8-4-2 0-2 0 1 1m6 27l1 1 1 6c0 5 3 13 5 15 3 1 5-7 2-10h-1l1 2c1 1 1 1 0 0l-3-1h-2l1-1c3-1 3-5 0-8-2-4-5-6-5-4m-2 44c-7 4-11 7-11 10 0 2 0 3 4 2l4 1 4-2c4-3 5-4 7-8l1-6c0-2-2-1-9 3" fill="#4e4936" fill-rule="evenodd"/></svg>