<svg xmlns="http://www.w3.org/2000/svg" viewBox="0 0 100 100"><defs/><path d="M51 10c-1 2-3 2-5 1-4-1-10 1-14 6-3 3-4 4-7 4-4 1-4 1-1 3l2 2-2 3c-3 5-4 7-2 12v5c-2 3-2 3 0 3 3 0 3 2 2 4-1 1-1 1 1 1 2-1 2-1 3 1 1 4 2 1 1-4v-5l3 1h3l-3 3c-2 2-2 2-1 4 3 3 8 1 9-3 0-2-1-3-3-4l-4-2-2-2c0-3 6-9 10-10l5-1c2 0 4 0 7 3 3 4 3 4 2 6-1 1-2 2-1 3 0 2-1 2-4 3-4 0-6 2-2 2l2 2c0 2 0 2 2 1l3-1-1 2v1c2 1 5 0 4-1l1-1c1 0 1 1-1 3-1 2-1 2 1 1 3-2 2-5-2-7l-3-1h3c2 0 3 0 2-1-3 0-2-2 0-4h2l3 4c2 3 2 3 1 5-2 4 0 4 4 0s7-5 7-3h-1c-2-1-5 3-5 6l-1 3c-2 1-1 2 1 2s2-1 2-2l1-3 1 1c-1 2 1 2 2 1v-1l-2-1-1-2 3-1h1l1-1c1-1 1-1 1 1 0 1 0 2 1 1l1-6c-1-4 0-5 1-5l3-1c1-2 1-2-1-2s-3-1-3-6l-2-9c-2-2-2-2 0-4 1-2 1-2-2-1-2 0-3 0-6-3-8-6-15-9-20-6m21 50l-4 2-2 2c-2 5-16 14-22 14l-7-5c-6-6-6-5 0 1l5 6-3 1-6 5-2 2-2-1c-2 1-2 1 0 0l1-2c-3 0-10 7-11 13l-1 2h38l38-1c0-3-4-6-15-12-14-7-15-8-12-16 2-3 2-3 4-2 1 1 1 1 1-2-1-3-1-4 1-6 3-2 2-3-1-1" fill="#4e4936" fill-rule="evenodd"/></svg>