<svg xmlns="http://www.w3.org/2000/svg" viewBox="0 0 100 100"><defs/><path d="M72 13l3 3 4 3 2 12c-1 10-1 9-2 8-2-1-2-1-1 2 1 4 0 5-3 1l-2-2 1 3c2 3 2 4-1 1-3-2-5-1-2 1 2 2 2 2 1 4l-2 2c-1 1-2-1-3-6l-2-9c0-2 0-2 1-1v-2c-3-3-1-3 3 0l3 1-4-4c-4-3-4-3-2-3l4 1h1c0-1-6-7-9-7-1-1-3 0-6 1-3 2-3 2-2 0 3-3 0-3-5 0l-4 2 3-3c2-2 2-2 0-2l-3 1h-1l-1 1-2 4-3 3v-3c0-1 0-2 1-1 0 2 2 0 2-2s0-2-2-2H28l4-4 4-3-4 3-5 3-2 1v2l1 16a150 150 0 004 23c1-3 1-3 1-1l1 7 1 4-2-4-1-3c-1 1 3 14 5 17l2 3 2 3v1h-1l-2-1c-1 1-1 1 0 0l-1-1a254 254 0 01-23 7l-5 6 46 1h45v-5c0-6-1-7-7-8l-5-3-4-2c-3-1-5-7-4-9l2-3 4-4c4-2 4-6 0-9l-2-3 1-12V26c-2-6-8-13-11-14-2-1-2-1 0 1" fill="#4e4936" fill-rule="evenodd"/></svg>