<svg xmlns="http://www.w3.org/2000/svg" viewBox="0 0 100 100"><defs/><path d="M37 10l-13 6c-8 4-8 5-6 14 1 4 1 4-1 7l-3 3 3 3c2 1 3 2 3 4l-4 18c-2 5-2 10-1 13 1 2 1 3-2 5l-7 4c-3 2-3 2-3 7v6h47c49 0 50 0 46-4v-4c2-3 1-15-1-17v-5c4-10 2-17-8-27l-7-8-4-9-5-10-1-3c-1-1-10-3-22-4-3-1-7 0-11 1m4 30l-6 2-3 3v3l3 2c2 1 2 1 0 0l-4 1v2c2-2 7-1 8 1 1 1 1 2-1 3-1 2-2 2-3 1l-1-3v-1c-2 0-2 2-1 4h-1c-3-3-3-3 1 5 3 6 7 10 13 14 5 3 6 3 11-2 5-4 8-9 6-10-1-2-1-6 1-10v-7c-1-3-5-6-7-6s-1 2 2 4c2 2 2 3 1 5-2 2-5 3-6 1v-3h-1c-4 3-4 1 0-2 2-2 2-2 1-4l-3-2-4-1c-2-2-2-2-6 0" fill="#4e4936" fill-rule="evenodd"/></svg>