<svg xmlns="http://www.w3.org/2000/svg" viewBox="0 0 150 150"><defs/><path d="M92 16c8 3 10 5 13 11l5 9c3 4 4 8 3 8l-1-1-2-3 1 4 3 8c0 2-3 1-8-5l-5-4 10 11 10 11c-1 2-5 1-5-1v-1l-2-4-4-4v2c1 1 3 3 3 5l2 3-3-1c-3-1-4-3-8-11-5-9-9-15-13-18l3 5c5 6 10 14 10 18 0 1-1 1-2-1v-1c2 8 3 19 2 32a57 57 0 01-11 27c-2 3-3 3-2 1l6-15c2-7 3-27 1-30v6c0 9-1 6-3-6 0-4-2-9-4-13a77 77 0 014 23l1 12-3 6-7 10c-5 5-14 9-17 9-4-1-16-13-18-18-3-6-6-20-6-21l1 1 5 5c1 0 1-4-1-5v3l-3-5c1-2 5-2 6 0l2 1c1-1 2 2 1 3h2v-4l-1-3-1-1-3-2 1 1c1 2 1 2-1 1l-2-1c0-2-2-1-5 2l-2 2v-8l4 1 7 2c4 2 4 2 2 0l-7-3-6-1 5-19c3-5 5-8 10-9 3 0 5-2 3-3-3-3-13 5-16 13a98 98 0 005 67c-1-1-2-1-1 1l-2 9-1 2 1-15-5-9c-4-8-7-17-7-21 0-6-2-3-3 5-2 11-1 13 2 17 2 3 2 4 2 10-1 8 0 12 2 12l1-7 1-11 1-4 1 2v14c-3 18-3 19-10 23-4 1-7 3-7 4l60 1h60v-3c1-3 0-4-6-8-4-3-6-7-8-19-3-13-3-19-2-21 3-2 2-7-1-17-2-7-3-10-2-15 0-5 0-7-4-15a998 998 0 01-13-24l-3-1-1-2 2 1 2 1c0-3-15-12-20-12l2 1m16 79l-2 10c-2 9-3 15-1 12 3-4 0 2-5 12l-3 9c1-2 2-2 3-1 2 1 2 1 3-1l2-2c1 1 3-6 4-9l2-13c2-9 2-11 1-14l-1-4-1 3-1 3v-4c0-2-1-3-1-1" fill="#4e4936" fill-rule="evenodd"/></svg>