<svg xmlns="http://www.w3.org/2000/svg" viewBox="0 0 100 100"><defs/><path d="M65 8c-1 2-2 2-7 1h-7l-9 1-10 3c-3 2-7 11-8 18-2 15-2 18-1 21 1 2 3 7 3 11 1 8 3 16 5 18v-4c-3-7-5-25-3-27l1-6 1-8c2-4 2-5 6-5l7-1c2 0 3 1 7 6l4 5-4 2-4 2c0 1 3 1 6-1h3l-2 1-4 3h2c3-1 3-1 3 1-1 1-1 1 2 1 2-1 3-1 5 3l1 9c0 5 1 6 2 3 1-2 1-2 1 1l-3 6c-5 4-10 8-14 9-3 1-3 1-8-4-3-3-4-3-2-1l2 4 1 1 3 6-1 2-1-3v-2l-2 2c-2 2-3 2-6 2v1c1 0 0 2-3 4l-2 2c0-2-1-2-5-2l-7 1h-1c2-1 2-2 1-2l-5 4-4 4h89v-3c0-4 0-4-10-9-9-5-10-5-9-8l-2-5-2-4-1-3v-1h3l1-1-2-1c-3 0-3 0 0-5l3-4-5 3-5 3c-1 2-3-9-3-18-1-8-1-8 1-5l1 6c0 4 1 4 3 1 2-2 2-2 1 0v7c-1 4 0 5 1 4 3-1 4-5 3-5l-1-3h4l1-2 1-2 3-2c2 0 2 0 1 7 0 10 1 11 3 1 1-8 1-12-3-17-2-4-2-4 2-1 2 2 2 2 1 0l-2-3c-2-1-2-2 0-5 2-6 1-8-3-12-9-7-15-9-17-5" fill="#4e4936" fill-rule="evenodd"/></svg>