<svg xmlns="http://www.w3.org/2000/svg" viewBox="0 0 100 100"><defs/><path d="M50 8l-6 2-3 1-3 3c-5 2-12 9-15 14l-3 6v-2l1-3-2 3-3 5c-3 2-3 4 0 8 2 2 2 4 2 8 0 3 1 5 3 8 4 5 4 8 1 9l-1 2c0 1 6 4 7 3l1 3-1 4c-1 0-1 3 1 4 1 1 0 2-2 2l-2-1-18 5c-3 2-4 2-4 5v3h44c43 0 43 0 42-2-2-2-22-9-26-9-1 0-2-1-2-3-1-2 0-5 3-11l6-12c2-5 4-8 7-9l3-4 2-5c1-1 1-3-1-7l-3-9c-1-5-10-18-12-18l1 3c4 4 4 6 1 3-6-5-17-7-22-4-3 1-3 2 1 4 3 1 4 0 1-2-2-1-2-1 3-2 6 0 7 0 11 2s7 5 9 8c3 4 3 4 0 2-3-3-15-9-18-9l-2 1c0 1 1 2 2 1 3-1 13 4 18 9 5 4 5 7 0 3l-15-9 4 7 5 7 1 1v-1l3 1 6 3-5-5c-5-3-9-7-8-8 0-1 10 6 12 9 3 4 3 5 0 5l-4-2c-3 0-3 0-1 1s6 9 5 10l-1-1-12-13c-4-2-9-7-10-10 0-4-4-8-6-8l-6 2-4 2 4-3 5-4c1-2 7-5 9-5 0 1 1 1 0 0 0-1 2-1 7 1h2c-4-3-9-3-12-2M34 18c-3 2-5 4-8 9-1 3-5 7-7 9-3 3-4 4-3 6 0 2 0 2 2 1l6-2c4 0 4-1 10-9 4-7 10-13 12-12 0 1-1 2-3 2l-6 7-5 8-2 3h3l4-1h1l1-2v-1l2-2c1-3 5-7 4-4s0 2 3 0v-2h-3v-1h3c2-2 2-2 1-5s-4-4-10-2l-4 1-1 1c0 2-6 10-12 14l-5 4 6-5 8-10 5-7c3-3 2-2-2 0m12 16c-3 3-4 4-3 2l1-3-2 5-4 7h-1c-2 1-2 2 0 3 1 1 2 2 0 1v2l-1 2-1-3c0-2-4-7-5-6l1 2 1 5c0 3-1 4-2 4l-4-1c-2-2-2-3 0-4l3-1c2 0 2 0 1-2h-4c-4 3-6 4-6 8l-1 3 2-3 2-2 3 3 4 3c2 0 3 1 4 3 1 3 0 4-1 2-1-1-1-1-1 1l2 4c2 3 2 3 0 3s-4 2-4 6c0 2 1 3 3 4s2 1 0 3l4-1v1c-2 1-2 2-1 2h2c1 1 2 1 3-1l5-1c2 1 2 1-1-3l-5-5-1-1-2-5-2-4 6 4c8 6 13 9 17 9 3 0 4-1 8-10 4-11 6-19 3-20l-1 1c1 1-1 3-2 2l-2-1-5-7c-5-5-9-13-7-14l-1-1-5 4" fill="#4e4936" fill-rule="evenodd"/></svg>