<svg xmlns="http://www.w3.org/2000/svg" viewBox="0 0 100 100"><defs/><path d="M46 12c-4 3-4 3-4 1v-1l-3 2c-3 0-2 2 0 2l-2 2c-4 2-7 5-7 7l2-1c3-4 8-6 14-6 4 0 5 0 6 2l4 3c3 2 11 9 11 11l-3-2c-4-5-4-4 1 3l3 6c0 3 0 3 1 2v-3l1-1c2 0 1 4 0 5-2 1-2 1-3-1l-1-2-6-6c-5-4-7-6-8-5l-1-1v-2l-1 1c1 1 1 1-1 1-4-2-2 0 3 2l6 4 8 10-6-3c-9-6-8-5-8-4l3 4 3 2-4-2-9-6-5-4 5 5 8 7c3 2 8 3 9 2s2 0 3 1l3 2-2 16c-1 5-9 13-12 13-4 1-12-4-15-9-4-4-8-15-6-12h2l1-3c1-1 3-2 3 0v1c1 1 1 0 1-1h2c2 0 2 0 1-1-2-3-6-2-9 0l-2 2v-5l-1-12-1 4c1 4 0 5-1 5l-2-1 1-1 1-5 1-9 1-4c-1-1-3 4-4 9 0 5 0 6-2 5l-4 2c-1 1 0 2 1 2l1-2h3l-1 1-1 1v3l-1-1h-2c-3 2-1 4 4 6l6 5 1 4-2-3-2-2 1 3 4 4c2 2 4 7 4 10s0 3-1 2l-2-2c-1 0-4-3-8-10-3-6-2-2 1 4 3 4 3 5 1 4-3-3-6-10-6-15l-1-3v9l7 13 5 10-1-1-5-1h-5l-4-6-3-5c0 2 3 10 6 13h-1l-4-7c-2-4-2-5-2-12v-5c-1 3 0 26 1 30 2 2 1 3 0 5l-1 3h82l-2-5c-2-4-2-5 0-10 1-6 2-18 0-21l-1-6-5-13-6-14C78 21 65 11 55 9c-4 0-5 0-9 3m1 1c-4 2-4 3 1 3 4 0 6 0 10 3l5 3 4 8c3 6 3 7 6 7l3 1-2-10c-3-7-7-12-12-15-6-2-10-3-15 0m35 33l-7 13a58 58 0 00-7 14v8 5c2 1 2 0 3-1l6-11c5-10 7-17 7-26v-6l-2 4" fill="#4e4936" fill-rule="evenodd"/></svg>