<svg xmlns="http://www.w3.org/2000/svg" viewBox="0 0 100 100"><defs/><path d="M38 11h3c5 0 9 1 12 4a336 336 0 007 6l-6-2h-5l-6 7-12 10 3-3 7-8c0-3-3-1-13 10L17 45c0-2 4-10 10-16l6-6c-2 0-12 10-14 14l-3 3c0-4 9-14 18-21 2-2 2-2 0 0-6 3-10 6-14 11l-4 4-1 3v8l1 9c0 5 2 9 5 11v2l-1 3v4l-4 8c0 4-2 7-2 7H9c-5-1-6 0-6 6v5h88l-2-3c-3-5-4-5-11-5l-7-1-2-6-1-6a198 198 0 006-33v-7c-1-3-1-5 1-9l1-6-6-5c-8-6-10-7-9-5 2 2-2 2-5 0l-2-2h2c-1-1-16-2-18-1m4 18a142 142 0 01-17 14l8-5 2 1c2 1 0 2-6 5l-3 1h3c3-1 3-1 3 1l-1 2-2-1v3l1 3-3-4c-3-7-10-3-10 7 0 3 0 3 1 1 0-2 1-2 1-1l1 4c0 3 0 3 1 2 0-2 1-3 2-3l1 1c-1 1 2 5 4 5s3 0 4 4c0 3 2 6 3 7l10 4 14 3c5 0 6-1 8-5l3-11 1-9c1-3 0-10-1-10l-2 5-1 5v-4c-1-10-1-12 1-11h3c3-1 3 0 0-14 0-1-1-2-4-2l-6-1-8-1c-5-1-6-1-11 4" fill="#4e4936" fill-rule="evenodd"/></svg>