<svg xmlns="http://www.w3.org/2000/svg" viewBox="0 0 100 100"><defs/><path d="M51 6l-9 4c-9 4-11 4-11 2-1-1-1-1-2 2l-2 3-1-4-1-3c-1 0-3 9-2 10h-1c-3-2-4 1-2 5l2 5c1 3 3 4 5 3l1 3 1 3v-4l1-6c1-3 2-3 4-3 2 1 5 0 7-1h4 3c5-1 11 0 12 1l-2 1h-2l2 2c2 2 2 2 1 3s6 8 8 7v1c-2 1-2 2-1 6 2 3 2 9 0 15 0 2-1 2-2 1-2 0-2 0-1 3v6c-2 2-8 8-12 10h-7l-5-5-1 2v1l-3-8h14l2-1c1 0 8-6 7-7l-3 1c-3 2-8 2-10 1s-3-1-2-3c0-2 0-2-1-1l-4 3c-3 0-4 1-2 2h-3l-3-1c-2-2-2 0-1 2v5l-2 2v-8a856 856 0 003-10h1l-1-2-2-3-1 1-1 13c-1 10-1 13-3 16L13 99l42 1h43V89c0-9-1-11-3-15-3-8-11-19-14-21-2-2-3-3 0-6 2-2 2-2 0-5-2-2-2-3-1-10l2-6-3-4c-1-3-4-5-6-7l-7-6-8-4-7 1" fill="#4e4936" fill-rule="evenodd"/></svg>