<svg xmlns="http://www.w3.org/2000/svg" viewBox="0 0 100 100"><defs/><path d="M52 9l-2 2-1 1h-3c-2 2-3 2-3 1l2-2v-1c-1 0-8 3-12 7l-5 3c-2 1-3 2-5 13v12c2 8-3 38-9 54l42 1h41v-4l-2-12c-3-11-3-10-4-10l1 6c1 7 0 9-2 3l-9-42a176 176 0 0114 37c2-1 0-6-8-28l-9-24v-3l2 3c4 6 9 17 12 27l5 11v-9c0-17-13-43-19-38-1 1-2 1-5-2l-11-5c-7-2-7-2-10-1m-12 4v3c0 3-1 4-3 2v-2l1-1c0-1-2 0-3 2l-4 4-2 4c-3 4-5 9-5 12h1c1-1 1-1 1 2v6c1 3 3 1 3-2v-7l1-3 1 4 1 5v-8c0-7 1-13 3-13l-1 5v10l1 1v3l1 2c0 2 0 2-2 2h-1l-1 1c-1 1-1 1 1 1l4 1-1 1c-2-2-7 0-7 2h3c1-2 5-1 6 1 3 2 2 5-1 5-1 0-2 0-1 1l-1 1-1-1v-1-2h1c2 2 3 1 1-1l-3-2c-1 1 0 11 2 16 3 5 10 11 13 11s11-5 15-9c2-3 3-5 3-9a56 56 0 000-11l-3-6c-2-2-2-2-6-1l-8 2c3-2 2-3-1-1h-5c-2-1-2-1-1 1l-1 1c-2 0-5-10-5-15v-4l1 4 2 4 2 4c2 6 7 7 5 1l-2-2v-1l-1-2-1-1-1-6c-2-6-2-9 0-5l4 9 3 8-4-12v-4c1 0 7 12 8 17 1 4 3 1 2-2v-6l1 4c1 4 3 6 3 3s-3-12-6-15l-1-4-1-1v-2l10-1h8c-2-1-16-3-17-2l-2 1-7 2v-3c1-2 1-2-2-1m13 6l7 5 4 4 6-3c7-3 6-3-1-1h-6l3-2c3 0 3 0 2-1s0-1 3-1h3l-13-2c-9 0-10 0-8 1m24 39c-4 4-5 7-4 7l1 3c0 1-1 1-2-1l-2-2v3a64 64 0 000 12c1 3 6 6 11 6h4l-4 2c-3 1-3 1-5-1-2-1-2-1-1 2 1 2 1 3 8 3h7l-1-4-7-37-5 7M36 72v2l-1 6-1 5-1 2c-3 1-6 5-4 5l4-2c3-3 3-2 1 1l-1 2 2-1c2-2 3-2 5-1s3 1 5-2l2-7 1 1-1 6v2l3-4c1-4 2-3-9-12l-5-3" fill="#4e4936" fill-rule="evenodd"/></svg>