<svg xmlns="http://www.w3.org/2000/svg" viewBox="0 0 100 100"><defs/><path d="M43 13c-10 4-11 4-17 18-7 14-8 19-3 28l2 7v3h1c0-2 0-2 2 0l2 2 3 1 4 2 2 3 4 5 2 2v1l2 8-2-1c-2-1-2-1-4 1l-2 1-13 3-8 3h39l40-1c2-2 0-4-4-5l-5-2-4-2c-3-2-5-5-7-11l2-7c2-4 4-5 4-3l1 1 1-3c-1-2 0-3 1-5 4-3 5-7 5-11L80 25c-3-5-7-9-9-9l-6-3c-6-4-14-4-22 0m3 17l-2 8-3 7c-2 4-4 14-3 14l3 1 3 1c0 1-3 2-5 1-3-2-4 2-1 10l4 8c2 2 10-1 17-5 5-3 7-5 9-8 2-4 3-5 4-4 2 1 3 1 5-2l4-6c0-4-2-10-4-10s-5 3-5 6l-1 3c-1 1-1 0-2-4a58 58 0 00-4-11c-2-8-7-12-13-12-3 0-4 1-6 3" fill="#4e4936" fill-rule="evenodd"/></svg>