<svg xmlns="http://www.w3.org/2000/svg" viewBox="0 0 100 100"><defs/><path d="M55 11l3 2h-5l5 2c5 1 9 3 8 4l1 2c2 3 4 15 3 17 0 1-1 2-3 1-1-1-2-1-1-5l-1-6c-1-2-1-1-1 4v6h-3l-4-2h-1c0 2-4 3-5 2l-1-4v-4l-1 5c0 7-4 10-5 3l-1-4c-1 0-1 4 1 7l-1 2c-1-1-1-1 0 0 0 2-1 2-3 1-1-1-1-1-1 1v1l-3-6c0-5-1-5-1-3-1 3 0 6 2 11 1 2 1 2-2 1-5-1-6-15-1-25 2-5 2-6 0-2-5 6-6 18-3 24 1 4 1 6-1 4l-3-6-1-4-1 5 1 5-2-3-3-2-1-2v1l-1 3c-2-2-1 1 1 2l1 2-1 1 1 1 2 1c1 3 2 5 8 11 4 4 6 5 6 3l2-1v2c-3 3-7 3-9 0-3-3-4-1-4 3 1 3 5 8 7 8l2-4 4-4c1 0 8 5 6 6v1l2 2 2 3 1 2c0 2-1 2-10 0l-3-1-1 1c-1 1-2 1-5-1h1c2 1 2 1 1-1l1-1v-1h-1l-2 2h-1l-6 4c-4 2-5 2-3 4h-2c-2-1-3-1-9 2-5 2-7 3-6 5l36 1h37l-7-4c-4-2-8-5-9-8-3-4-4-7-2-7 1 0 6-3 11-8l2-5v-2l1-1 4-9c5-9 6-14 2-24-3-9-12-18-20-20l-4-1m-4 30l-3 2 3-1 5 1c2 1 1 2-4 2s-7 0-10 2l-2 3c0 2 3 1 7-2 4-4 8-4 11 0l1 1-5-2-2-1 2 1 2 3h-1l-3-1v4c-1 2-4 3-5 1-1-3-2-2-1 0l3 4 1 2-5-5-6-3c-1 0-2 1-2 3l-1 2-3-3-2-2-2 2c-3 2-4 2-4-1l-1-2c-2 0 1 5 4 8l4 3 4 2c1 2 1 2-1 1h-2c1 2 2 2 5 1 4 0 5 0 3 3-1 2 0 2 2 5 4 2 13 6 16 6 2 0 7-7 10-13l1-5-3-2c-1-1-1-1 0 0 3 2 5 0 5-4l-2-4v3c0 2 0 2-2 2h-2l-1 1-1-2c0-3-3-2-6 1l-3 3 1-2 3-4 3-2c3 0 9-3 6-3l-2 1h-1c0-1 3-3 5-3v1l1 2c2 1 3 1 3-1l-3-3-2-1h2c3 1 3 1 1-1-2-3-6-4-12-4-4-1-7 0-9 1" fill="#4e4936" fill-rule="evenodd"/></svg>