<svg xmlns="http://www.w3.org/2000/svg" viewBox="0 0 100 100"><defs/><path d="M51 11c-11 2-20 10-25 20-2 5-2 5 1 24l4 8 5 8 5 6 4 3-3 2-2 4c1 2 0 2-4 2-5 0-9 2-14 8l-3 4h78v-3l-1-5c-1-2-1-2 1-2v-1l-5-1c-3 1-4 0-6-1 0-1-2-2-3-1l-1-4v-5h-5c-5 0-5 0-5-3l3-6 6-8 5-5 2-3c1-2 1-5-1-12-3-11-4-14-9-20-6-7-17-11-27-9M35 39l-3 4c-2 2-1 4 1 3l6 2 1 3v5c-2 3-5 2-5-1 1-1 0-2-1-2s-1 3 1 11c1 4 5 11 9 14 5 4 5 4 10 1 7-3 11-7 14-12l5-5 4-3 3-2-3 2-5 2v-2l1-4 1-5v-2l-3 5c-1 3-1 3-2 2l-1-5-2-5-3-2c-3 0-12 1-10 2l1 1h2c4 0 7 2 6 4l-3 3c-3 2-3 2-5 0v-3-1l-2 1c-1 2-3 0-1-1 1-2 1-2-1-1v-1c1-2 1-2-1-1h-2c0-2 6-4 9-4s3 0 2-2l-3-1-3-1c-4-1-5-1-3 1s0 1-4-1l-2-1c0 1 0 2-2 1l-4-1c-1-1-1 0-2 2" fill="#4e4936" fill-rule="evenodd"/></svg>