<svg xmlns="http://www.w3.org/2000/svg" viewBox="0 0 100 100"><defs/><path d="M32 15l-9 6C20 25 7 54 6 58c0 4 1 9 4 10l5 3 4 2v3c-1 1-1 1 0 0 3-3 4-1 1 4l-3 8-1 1-1 1c-1 3-3 3-4 0l-2-1 2 4 2 3-4 2c-3 2-2 2 36 2h39l-5-5c-5-4-11-5-19-5-3 0-3-1-3-4s1-4 3-4l3-1 5-1c4 1 4 1 8-3 7-7 7-13 4-29-5-23-9-29-23-33-11-4-17-4-25 0m28 14l-7 7-2 3h2l5 2 3 2-4-1c-4-2-6-2-8 0-3 2-2 3 1 2l5 1c3 3 2 5 0 2-2-1-3-1-3 2-1 2-4 3-6 1s-2-1-3 3c-2 10-1 17 4 21l3 4 10 3c2 0 8-9 11-16 1-5 2-15 0-15l-1 3c1 2 0 3-3 0l-2-1 2-3 1-2h-1c0-1 3-3 5-3l2-2c0-4-6-15-8-16l-6 3" fill="#4e4936" fill-rule="evenodd"/></svg>