<svg xmlns="http://www.w3.org/2000/svg" viewBox="0 0 100 100"><defs/><path d="M43 11c-9 3-18 12-17 17v1c-1-2-3 6-3 13 0 5 3 21 5 22 1 1 1-1 2-8 0-6 0-7 2-6 1 2 2 2 4 1l3-1 1-1c0-2-4-6-6-6v1l1 1 1 2 2 1-3-1a625 625 0 00-3-4c1-2 18-11 20-11s8 9 10 15l1 8c0 4 0 6 1 5 3-1-2 8-7 12-3 4-12 9-15 9l-4-3c-3-5-4-7-2-2l5 7c2 2 3 3 2 4l-2 1-2 1v-1c1-2 2-3 1-4h-1l-3 3-8 3-10 3-8 4-3 3h45c45 0 46-1 46-2 0-3-7-7-14-8l-6-2-5-2c-4-1-5-2-6-6-2-8-2-9 5-17 8-9 10-15 10-25C81 21 69 9 53 9l-10 2" fill="#4e4936" fill-rule="evenodd"/></svg>