<svg xmlns="http://www.w3.org/2000/svg" viewBox="0 0 100 100"><defs/><path d="M65 12c8 4 13 12 19 29l2 10-2-4-1-1c0 3 10 20 13 24 1 1 1 1 1-1a408 408 0 00-21-49c-3-4-11-10-13-10l2 2m-12 7l3 6c3 4 4 15 2 16-1 1-1-1-1-4s0-4-1-3c0 3-3 10-4 10l-1-1v-1l1-6v-6l-1 6c-2 7-4 12-5 10v-3l1-9-1 4-2 6-2-12-2-9c-2-5-2-2 0 5v20 1l4-1c1 0 2 1 2 3v2l2-2c2-2 3-2 3-1l2 2 1-1c-1-1 0-2 1-2v3h-4c-2 0-2 0-1 2 2 2 6 0 7-4 1-3 1-3-4-3s-6-1-4-3l2 1h2c3-3 6-1 7 4v-9c0-12 0-14-3-17l-4-5-2-1 2 2M22 44c-1 3 0 4 2 6 3 3 4 6 5 11l2 7 3 22v3l-1-3c-2-2-2-2-2 0l-2 2c-1 0-2-1-2-3l-1-2-1 1-1 2v-3l1-6v-1l1-1-1-9c0-11-1-8-1 5-1 10-1 12-3 15l-1 2c1-5 1-5-1-1-2 2-3 6-3 7l-1 2h83v-9l-6-2-8-6-1-4-1-1c-2 0-8-15-9-24l-2-6c-1-1-1-1-1 1l2 16 1 13c1 0 2 3 2 10 0 6 0 6-1 2-1-5-2-6-2-1l-1 3-5-1-5 1-1-15V65l-2 6c-3 3-11 8-13 8s-11-8-13-11l-1-7-1-5c-2-1-1-3 1-3l1 1c-1 1 0 2 1 3 1 2 3 0 4-3l-1-1-3-2-2-1-2 1c-2 1-6-4-6-8-1-2-1-2-1 1" fill="#4e4936" fill-rule="evenodd"/></svg>