<svg xmlns="http://www.w3.org/2000/svg" viewBox="0 0 100 100"><defs/><path d="M43 10c-5 1-9 4-11 7-3 3-3 4-3 8v6 1l1 1-2 1c-2 0-5 8-6 17-1 8 0 15 2 14l1 1c-1 1 3 4 5 3v1c-1 1 2 4 4 4l1 1h1l-2-8c-4-10-4-12 0-13 2 0 3-1 2-2l-1-4-2-3-1 2v1-12l3-3h4l14-1c4 1 6 4 4 5l1 2c3 2 6 10 6 15 0 3-4 7-6 7-2-1-2-1 0 1 3 2 3 3-1 4l-3 2 2 1 3 2c0 2-14 8-19 8l-3-1h-1c0 2 3 4 5 3 1-1 7 1 7 3l1 5c1 2 1 3-2 4-5 2-10 3-14 2-3 0-4 0-7 2l-4 3h76l-4-3c-4-4-5-4-10-4s-6 0-9-3l-4-5c-1-3-1-3 4-5 4-1 7-4 12-9 7-6 7-7 8-12 0-5-3-18-8-29a40 40 0 00-44-20" fill="#4e4936" fill-rule="evenodd"/></svg>