<svg xmlns="http://www.w3.org/2000/svg" viewBox="0 0 100 100"><defs/><path d="M49 9l1 1 3 1c2 1 1 2-3 2l-5 1h-1l-1 1-2 1c-3 0-5 2-4 5l-1 3-1-1c1-3 0-4-1-3s-2 2-1 3c0 2 0 3-2 4l-3 2h-1l3-3c2-1 2-2 1-3s-1-1-4 1l-1 2c1 0 1 2-1 2-1 0-1-4 1-6l1-1-3 1c0-1 2-4 6-6l3-2-3 1h-2l2-2 2-2-3 1-1 3h-1l-3 2c0 2-1 3-2 3l-1 4-1 6c0 2 0 2-1-1s-1-3-1 3c0 4 0 5-1 3l-1-6v-3l-2 3c-2 4-3 7 0 3 1-2 1-2 1 3l-1 6-2-3-1-3v3l3 6c4 5 4 6 1 4l-2-4c-1-2-1-2-2-1v9c1 3 2 4 2 1 0-2 0-2 1 0l1 2c-1 0-1 1 1 2l2 5 3 4c1 1 1 2-1 3l-1 4c0 2 0 2 1 0l2-3c2-1 5 1 7 3 1 2 1 3-1 5 0 2-2 3-3 3l-8 6-1-1h-4c-8 3-9 4-9 7v4c-3 3 0 3 38 3 37 0 38 0 38-2 0-1-2-3-8-6-9-4-9-4-8-6l3-7c0-4 2-5 2-2v-2l2-5 1-6c0-6 1-11 2-11l1 6c0 5 0 6 1 4l1-8c0-5 0-7 1-6 3 5 2-17-1-23-4-8-15-18-20-18v1l1 1h-2l-2-2-2-1c-2 0-3 1-2 2m-1 10c-2 2-4 2-4 1l-2 1-2 2-6 4-3 3c2-2 3-1 2 1-3 3-7 12-6 13l2 1 2 1h2c2 0 2 0 1 1v6c0 6 2 5 2-1l1-3 1-2 2-13c0 2 0 2 1 1s1-1 1 2l2 7v1-11-2c-2-1-2-1-1-4l1-3v3c0 4 0 5 1 1l1-4v4l3 17 1-2c0-2 0-2 2 0 1 1 1 1 1-1l-1-13 2 3 2 6h-1c-2-1-2-1 0 3l2 3v-5l-1-5a548 548 0 010-3l3 6 4 6 2 2c0-2-4-15-7-19-3-6-3-8 0-3s9 19 9 22 0 3 1-1c2-9-1-24-5-25v3c3 4 2 4-2-1-4-6-7-6-13-3m-6 28v1h-1l-1-1-1 7-2 10c0 3 0 4 5 8l9 7 4 1 5-5 7-5v-1l1-5 2-8c-1-3-1-3-1-1-1 2-2 2-4 1s-2-3-1-5v-1c-2 1-6 0-7-1h-2c0 1-1 2-2 1l-2 1v2h-3c-2 0-3-1-2-2l-1-1c-2 0-2 0-1-1s1-2-1-2h-1m-22 5c-3 0-1 2 1 2s3 1 3 3c0 4 3 10 7 17 3 4 3 6 1 13h1c1-2 1-2 2-1h1v-1c-1 0-1-18 1-23l1-6-4 12-2 2-2-2h2l-2-1c-1 0-4-6-5-11-1-4-1-5-5-4" fill="#4e4936" fill-rule="evenodd"/></svg>