<svg xmlns="http://www.w3.org/2000/svg" viewBox="0 0 125 125"><defs/><path d="M57 11c-3 1-5 5-6 9 0 4-1 4-2 1-1-2-1-2-1 0 0 3 0 3-4 2h-4l-1-1 7-7 2-1v-1l-7 5-8 8-2 2 3-2 6-2c3 0 3 0 2 2-1 1-1 1 1 1 4-2 7-2 9-1 1 1 2 1 3-1 2-2 9-5 13-5 5-1 9 2 13 10l3 5-5-12-1-2-5-7-1-1-2-2c-1 0-1 1 3 5s5 7 1 4l-5-2c-4 0-14 5-14 6l-1 1v-2-1c-2 2-2 0-1-5l5-5c4-2 3-3-1-1m21 3l7 7c4 4 6 7 8 12 1 4 2 5 0 3-4-6-5-6-2 1 4 7 6 18 4 16l-1-4v3l2 11 2 7 1 1 1 2v1c1-2 3 3 3 12 0 6-1 9-3 13l-5 8-2 2 2-3 2-3-3 1-3 2 2-3c2-5 3-9 2-10l-1 1-6 14c-2 1-2 1-1-1 2-4 2-5 0-3l-3 2 2-1c8-7 9-17 3-31l-5-13-3-6v1c2 2 1 4-1 3h-2c1 1 0 2-2 3l-2 4c0 1 4 4 7 4 2 0 2 0 1-1l-1-2v-1l-1-1c-1-1 0-2 1-1 4 1 5 11 1 18 0 2-2 4-4 5l-5 6-5 6c-2 1-2 1-9-2-8-4-13-8-16-14l-5-5c-2 0-4-2-8-7l-2-2v3l4 8 3 5-3-4c-3-3-5-6-6-10l-2-6c-2 0 0 6 3 12l2 6-3-3-1-1-3-3c-1-3-2-4-1-1 1 4 6 9 12 12 7 2 9 5 6 7-2 1-9-5-14-9-5-6-7-11-7-17 0-5 0-5-1-1-1 5 1 11 4 15l5 8 3 9 3 4-3 1-5 6c-1 5-3 7-7 10l-6 4c-1 1 20 1 46 1h47v-3-5c0-2 1-3 4-5 8-6 8-15 1-38-5-13-7-21-8-28-2-13-11-26-21-31l-2-1M61 25c-3 0-5 2-4 3l-2 2-3 4c-2 3-1 2 2-1s4-4 7-4c2 0 2 0-2 3-5 3-5 4 0 1l5-2c2 3-18 24-22 24l1-5v2c-1 1-1 1 0 0l1-3c1-3 0-2-4 3-5 5-6 5-4 7s3 3 2 1l1-3 2 1 3-2 8-7 10-11 4-7 4 4 4 5-3-5c-3-5-7-7-11-7l-2-1 2-1 3-1v-1l-2 1M41 85v19l6 1c7 1 9 1 6-1-4-2-4-2 0-1h4l-6-6-4-6c-7-9-7-9-6-6m42 8c-2 3-4 4-4 3h-1v3l-1 6 1 3 2-2c0-2 1-3 2-3 2 1 6-6 7-10 0-6-1-6-6 0m-43 14c-1 3-1 3 8 6 7 2 10 2 10 0l1-2 1 1 2 3c1 1 1 1 1-4l-2-5-1 1c0 2-2 2-11 0s-8-2-9 0" fill="#4e4936" fill-rule="evenodd"/></svg>