<svg xmlns="http://www.w3.org/2000/svg" viewBox="0 0 100 100"><defs/><path d="M49 4l-3 1c-3 0-7 3-7 5-1 2-6 5-9 5-2 1-8 9-10 14-2 8-1 20 3 24 1 2 2 1 1-1v-3c3-4 8-1 8 5l1 3 1-6c0-4 1-6 3-9 4-6 6-8 12-9 7-1 11 0 16 6l4 5-2 2c-3 1-5 3-3 3v1l-1 1h-2 1l1 1c-1 1 0 2 1 2 2 1 4 0 3-2l1-1v4 1c2-1 2-1 1 3-1 5-3 11-8 16-4 4-5 5-7 4-5-1-15-8-19-12l-5-5-3-2c-2-1-2-1-1 1l2 4c0 2 0 2 1 1l2 2 1 3 2 2 2 3 2 3 1 2 1 2c2 3 1 2-4 0l-4-1 8 5c6 3 7 3 7 6 0 1 0 2-1 1l-3-1c-2 0-2 0-1 1 3 2 0 1-5-1l-8-5c-2-1-2-1 0 2l3 3c-1 1-11-4-10-5 0-1 1-1 2 1 2 1 2 1 1-1v-3l-3 1-6 3c-4 0-7 1-5 2v1c-1-1-3 0-5 1-3 1-4 3-1 2v1c-3 4-3 4 40 4h41v-4l2-4c2 0 2 0 0-1-4 0-4-2-2-4l1-7a565 565 0 01-2-30V40c-2-5-2-6 0-8 3-6 1-14-4-16-2-1-3-2-3-4l-1-5c-1-2-2-2-4-2l-4-1H57h-8m10 74c-5 5-5 7 0 10l7 2c2 1 2 1 1-1v-7l-2 2c-2 3-3 1-1-2 2-1 2-2 1-5l-2-3-4 4" fill="#4e4936" fill-rule="evenodd"/></svg>