<svg xmlns="http://www.w3.org/2000/svg" viewBox="0 0 100 100"><defs/><path d="M56 13l1 1c1-1 1 0 1 1l-1 2 1 2h1c-1-2 0-3 2-2h6v2l2 1h2l2-1c2 0 1 4-1 8l-2 4-1-3v-3c-2 0-6 3-5 4 0 1-5 4-8 4h-2l2-2 2-4v-2l-2 2c-2 3-7 6-8 5l-1 1c0 1 1 2 4 1h2c-1 2 1 3 2 1l2-1v1c-2 2-2 2-1 3h4c3 0 3 0 3 2s0 2 2 1c2-2 4-1 3 1v3c-1 1-1 1 1 2l2 2c-1 2 1 7 3 6v2l-1 3c0 2 4 3 6 1s1 1-1 3-3 3-4 2-1 0-2 3c0 4-1 5-5 9l-5 4 1-4v-4l-2 4c0 4-1 4-4 6-5 2-15 2-19 0-2-2-3-3-2-5v-2l-1 2c0 2 0 2-2 0l-1-2 2 4c2 2 2 3 1 5l-1 3v2l-15 7-1 1c-1 1 13 1 39 1h40v-3c-1-4-1-4-5-4-3 0-4-1-3-2s2-1 5 1h3c1-1-2-4-6-5l-5-2-6-17 3-12 3-11c-1-2-2-8-1-9 2 0 1-2 0-2-2 0-2-1-2-4l-1-4-1 2-1 1-2 2c0 2-5 6-6 5l-4 1c-4 2-6 1-3-1l2-3 1-1c0 2 5 4 5 2s5-6 7-5v-2l-3-3-2-3c-1-3-1-3-4-2l-2-1c1-3 0-4-1-3-2 1-8 0-9-2h-3m-13 9c-1 2-1 2-1 0v-2c-1 0-3 4-2 5 0 2-3 1-4 0l-2-1-1-2c1-3 1-3-2 1l-1 2c3-2 8 1 6 5-1 1-1 1-2-1-1-3-2-3-2 1 0 3-1 4-3 2h-1l4 3 1-2c0-2 0-2 3-1 2 1 3 2 1 4l-1 2c2 2 3 1 3-1s3-3 4-2c0 2 1 1 3-1l2-2 3-3 3-2-4 1-4 1c0-1 3-3 8-4 4-2 5-2 5 0l2 2c2 0 8-5 7-5-1-1-2 0-3 1-2 3-3 3-5 0 0-1-2-2-3-1l-3-1c-1-1-2 0 0 2v1l-1-1h-2l-4 3-2 4c-1 3-2 4-3 3v-1l1-5 3-6v-2l-3 3" fill="#4e4936" fill-rule="evenodd"/></svg>