<svg xmlns="http://www.w3.org/2000/svg" viewBox="0 0 100 100"><defs/><path d="M56 4l-3 1H42c-1 2-1 2-2 1-1-2-10-2-10-1h-1c-1-1-1-1-1 1l-2 3-2 2 1 1h1l-1 1-4 2c-1 1-2 2-1 3v5c-2 1-6-4-8-7l-1-2v2c2 2 0 3-2 1-2-1-2-1-1 1l2 2c1-1 3 0 4 1l1 2-2-1h-1c-1 0 1 6 3 6v-1h5v2h-2l-1-1-1 1v2h1l1 1-2 1c-2-1-3-1-3 1l-2 1 1-3c2-1 2-2 1-2l-1-2c0-2 0-2-1 0l-4 5-4 3v14c0 14 0 14 5 12l5-1c1 1 2 1 3-1 0-1 0-10-2-16 0-3 0-3 2-3 3 0 3 0 2 3v3c1-1 7 2 7 3h-1c-1 0-2 1-1 4l-1 3v2l1 3 2-4a633 633 0 017-14c-2 1-2 1-2-2v-3l1-1 5-3c4-3 4-3 6-1 1 0 2 2 1 3l1 1 1-2c-1-2 0-3 1-4s2-1 6 1l7 3 4 2h1c-1-1 0-2 2-4 3-2 3-2 4 0v1 2l1 5v2l-1-1v4l2 1c2 0 2-1 2-4 0-7 3-8 3-2 0 2 1 3 2 3h7c2-1 3-1 2-4-2-5-2-5 2-6l4-1v5c-2 11-2 19-1 19 1 1 1 0 2-1l1-2v2l1 2 1-17c0-16-1-16-3-17l-3-4c0-2-1-3-2-3l-1-1v-3c-1-2-1-2 1-1l2-1 1-3 1-3-6 5c-5 5-7 5-2 0l2-3h-1c-1 1-1 1-4-2-3-2-3-2-1 0l1 2-2 1c0 1-1 1-1-1l-1-2h-1v2c1 1 1 1-1 2l-1 2-2 1c-1 0-2 1-2 4v5l3-2 3-1-1 1c-1 0-1 1 1 2v1l-4-1c-1 1-2 0-4-2-3-3-3-3-1-4 1-1 2-2 1-3l1-1 1-2 1-3 1-1-1-2-3 4v1l-1-1c0-5 0-5-2-5s-3 2-1 3c1 0 2 1 2 3 0 3-1 3-3 3l-1 2h-2l-1-2-1-3 1-1c3-2 4-4 2-4h-7M31 8h-2l-2 4 1 1v-1c0-2 1-3 2-1 1 1-1 5-3 5a1103 1103 0 00-4 0l-1 3v2l2-2 3-1-3 3c-3 3-3 3-1 2 2 0 2 0 1 1l-2 3c0 3 1 3 3 2h3c1 0 3-1 2-2h-1l-2-3-2-3 2 2 4 2 2 2 1 1v1l1 1c2-1 4 0 5 1l4 2 2-3 3-2-5-1-4 1h-1c-2-1 1-2 6-2l5 1h4l-1-1h-1c0-1 1-2 2-1l4-2c1-1 1-1 1 1l1 1 1 1 1 1h2l2 1c1-1 3 0 4 2 2 2 2 2 2 0 1-3-3-10-7-13-5-3-10-4-17-4h-5v-2c-2-1-2-1-2 1l-2 3c-2 2-3 2-3-1l1-3v1l1 2c3-1 2-3-2-5l-3-2-2 1m39 44c9 9 11 12 10 18a110 110 0 00-2 10c0 1-3-3-3-5l-3-4-1-2 1 2c1 4 1 4-1 1l-2-7c-1-4-3-6-3-3s-5 9-9 13c-7 5-10 4-16-3l-7-9c-1-7-1-7-3-3s-3 7-1 7v2a7649 7649 0 00-6 13c-2 0-2-5-1-9 2-3 2-3 0-2-1 1-1 1-1-3l1-5-2 3c-1 3-2 4-6 4s-4 1-4 4 0 4-5 5l-4 2 2 3c2 2 2 2 1 3l-2 4c0 4 0 4 5 5a434 434 0 015 2c-3 2-1 2 40 2 40 0 48 0 43-2v-2c2-1 3-4 1-4v-1c2-2 1-6-1-7v-1l2-6c0-4-1-4-4-4-2 0-4-1-4-3-1-1-2-2-4-1-2 0-2-1-2-7l-1-1c-2 0 0-6 1-8l3-1 2-1-1-1h-3c-1-1-2 0-3 2-2 4-3 3-3-2 0-4 0-4-2-3l-3 2c-1 0-1 1 1 1l3 4 2 4v2l-4-5-5-5-2-1-4-3 5 6" fill="#4e4936" fill-rule="evenodd"/></svg>