<svg xmlns="http://www.w3.org/2000/svg" viewBox="0 0 100 100"><defs/><path d="M46 10l-6 2h-2l-1 1c0 1 0 2-2 2h-3l1 1 2 1c1 1 1 1-1 1l-3 1-2 1 1-2-4 3c-5 5-6 6-7 13-1 4-3 10-5 12-3 6-3 6-2 9 3 4 2 7 0 8-3 0-2 2 1 4l2 1c-2 0-1 2 1 2l3 2-3 1h-3c0 2 8 8 12 9 3 0 3 0 2 3-2 3-13 10-19 12l-5 2a748 748 0 0070 0l-6-3c-4-3-6-5-5-6l1-1 6-4c2-3 6-6 9-7 4-1 6-4 2-3-1 1-2 0-2-1l3-3h3l-4-2-5-3-1-2 2 2 3 2 3-4 2-5v-1-3c-2-2-3-6-5-17l-3-11c-3-6-9-12-14-15-6-3-8-3-16-2m13 18c-3 1-7 5-7 6s2 2 5 2l4-1v-1h6l6 3-5-8c-4-3-5-3-9-1M49 39c-2 1-2 2-1 2l5 1 6 2c3 0 4 2 2 2l-1 1-1 3-1-1-3-2c-3 0-4 0-3 1 0 2 0 2-2 1h-3l-1-1c0-1 3-3 7-3 2 0 2 0 1-1-4-2-8-1-9 1l-1 8-2 11c-2 6-1 8 5 11 7 4 9 5 13 3h3c1 4 5-3 9-17 2-6 1-11-1-12-2 0-2 0-1 1l-1 1c-2-1-2 0-1 3 0 3 0 3-1 2-2-2-1-8 1-9l4-2c2 0 3-1 3-3 0-3-2-4-8-3l-7-1c-4-3-9-2-11 1" fill="#4e4936" fill-rule="evenodd"/></svg>