<svg xmlns="http://www.w3.org/2000/svg" viewBox="0 0 100 100"><defs/><path d="M43 11l-9 3c-8 5-15 16-18 27-2 9-2 12-1 14 1 1 2 0 1-2l1-3 2 6c2 7 5 12 4 7l-1-3 2 3 5 11-1 1-6 2-4 1-1 8c0 8-1 8-3 9l-6 3-2 2h46c40 0 46-1 46-2 0-2-8-3-12-1-2 1-4 0-8-1-7-2-10-4-10-10-1-4-1-5 2-9s7-8 8-7l-1 2c-3 4-2 4 4-1s8-12 4-25c-5-19-15-31-25-34-6-2-8-2-17-1m6 18c-1 2-5 9-5 13-1 1-1 2-2 1l2-7 1-6-6 5h2v2l-5 5c-2 1-3 4-4 6 0 5-1 6-2 4-1-1-1 0-1 2v3l-1-1-1-1-2-2c-1-2-1-2 1-2 3 0 3-1-1-4-2-2-2-2 0-2l3 2 2 1-3-4h-4v8c0 3 0 4 2 6l3 2 4 4c2 5 7 10 13 14 4 3 5 3 7 2 4-2 11-10 13-14 3-6 3-8-1-10-3-1-3-1-2-3l1-2 2-1c2-1 2-2 2-5l-1-6c-2-2-2-2-2 3l-2 7v2l-3 4c-3 2-4 3-3 1 3-3 5-9 6-16 0-7 0-8-2-10s-9-3-11-1" fill="#4e4936" fill-rule="evenodd"/></svg>