<svg xmlns="http://www.w3.org/2000/svg" viewBox="0 0 100 100"><defs/><path d="M43 7c0 2-1 3-4 5h-6c-4-3-4-2-4 1 1 2 0 3-1 1l-2-1c-1 0 0 4 2 6 2 1 2 1 0 4-1 3-2 3-5 3-4-1-4 0-1 4 2 2 2 2 0 2l-3 1h-1l2 2c4 2 3 3-1 3l-4 1c0 1 4 6 6 6 3 0 3 3 1 5-3 2-3 3 2 4 4 1 6 4 3 5l-1 2 4-1c2-1 2-1 3 1l3 7-2-5c-2-6-2-7 4-9 4-2 4-2 6 0 2 1 2 1 1-3l1-5 1 1c-1 1 2 2 3 1 2-2 4-1 3 1 0 2 1 2 3 1l1-1h1c2 0 3-2 1-3l-4-1c-3-1-3-1 1-1 4 1 4 1 3-1l-5-1c-4 1-4 0-1-6 2-4 2-4 5-3 4 1 6 3 7 9l1 4-2 8c-1 1-1 1 1 1l3-2 3-3v-3l1 2-1 6c-1 3-1 3 1 3l2-1 3-3 2-2c0 2-4 7-7 8l-3 3c-2 5-8 11-15 15s-10 4-12-1l-4-6-2-2 2 3 1 5-1 2-3 3c-5 2-7 3-6 4l-3 2c-3 1-7 2-16 2-5 0-5 0-6 4v5l47 1h47V86l-4-2-7-1c-4 0-6-1-6-4-1-3-1-3 2-3l4-1-2-1 1-1c1-2 1-2-1-2h-2l2-2c2-2 3-4 1-4s-4-6-3-9c1-2 2-3 4-3l3-2h-1l-2-1 2-1c3 0 3-1 0-3-4-1-5-6-1-9 3-2 3-3 0-2-1 0-2 0-3-2-2-6-6-14-10-16l-3-4-2-4c-2-2-2-2-1 0 3 5 1 5-6 1-8-4-12-5-8-2l3 2-4-1c-3 0-5-1-7-3-3-3-4-3-4 1" fill="#4e4936" fill-rule="evenodd"/></svg>